<svg xmlns="http://www.w3.org/2000/svg" viewBox="0 0 24 24"><path d="M14.25 14.75h-2.5c-.414 0-.414-1.5 0-1.5h2.5a.75.75 0 0 1 0 1.5z"/><path d="M14.25 17h-1.5c-.965 0-1.75-.785-1.75-1.75v-2.5c0-.965.785-1.75 1.75-1.75h1.5a.75.75 0 0 1 0 1.5h-1.5a.25.25 0 0 0-.25.25v2.5c0 .138.112.25.25.25h1.5a.75.75 0 0 1 0 1.5zm-5 0a.751.751 0 0 1-.656-.386L7.5 14.645v1.605a.75.75 0 0 1-1.5 0v-4.5a.75.75 0 0 1 1.406-.365l1.094 1.97V11.75a.75.75 0 0 1 1.5 0v4.5a.75.75 0 0 1-.75.75zm9.25 0a.75.75 0 0 1-.75-.75v-4.5c0-.414 1.5-.414 1.5 0v4.5a.75.75 0 0 1-.75.75z"/><path d="M20.25 12.5h-3.5a.75.75 0 0 1 0-1.5h3.5a.75.75 0 0 1 0 1.5z"/><circle cx="3.75" cy="16.25" r=".75"/><path d="M21 1H3C1.346 1 0 2.346 0 4v16c0 1.654 1.346 3 3 3h18c1.654 0 3-1.346 3-3V4c0-1.654-1.346-3-3-3zm0 20H3c-.551 0-1-.448-1-1V6h20v14c0 .552-.449 1-1 1z"/></svg>